<?xml version="1.0" encoding="UTF-8" standalone="no"?>
<svg
   xmlns:dc="http://purl.org/dc/elements/1.1/"
   xmlns:cc="http://creativecommons.org/ns#"
   xmlns:rdf="http://www.w3.org/1999/02/22-rdf-syntax-ns#"
   xmlns:svg="http://www.w3.org/2000/svg"
   xmlns="http://www.w3.org/2000/svg"
   xmlns:sodipodi="http://sodipodi.sourceforge.net/DTD/sodipodi-0.dtd"
   xmlns:inkscape="http://www.inkscape.org/namespaces/inkscape"
   id="Layer_1"
   data-name="Layer 1"
   viewBox="0 0 999.99994 1375.5651"
   version="1.1"
   sodipodi:docname="Mafty.svg"
   inkscape:version="0.92.4 (5da689c313, 2019-01-14)"
   width="999.99994"
   height="1375.5651">
  <metadata
     id="metadata39">
    <rdf:RDF>
      <cc:Work
         rdf:about="">
        <dc:format>image/svg+xml</dc:format>
        <dc:type
           rdf:resource="http://purl.org/dc/dcmitype/StillImage" />
        <dc:title>Mafty</dc:title>
      </cc:Work>
    </rdf:RDF>
  </metadata>
  <sodipodi:namedview
     pagecolor="#ffffff"
     bordercolor="#666666"
     borderopacity="1"
     objecttolerance="10"
     gridtolerance="10"
     guidetolerance="10"
     inkscape:pageopacity="0"
     inkscape:pageshadow="2"
     inkscape:window-width="1920"
     inkscape:window-height="1017"
     id="namedview37"
     showgrid="false"
     inkscape:zoom="0.5"
     inkscape:cx="167.55697"
     inkscape:cy="635.69817"
     inkscape:window-x="-8"
     inkscape:window-y="-8"
     inkscape:window-maximized="1"
     inkscape:current-layer="Layer_1"
     fit-margin-top="0"
     fit-margin-left="0"
     fit-margin-right="0"
     fit-margin-bottom="0" />
  <defs
     id="defs4">
    <style
       id="style2">.cls-1{fill:#fefefe;}.cls-2{fill:#dea300;}.cls-3{fill:#dfa301;}.cls-4{fill:#de7a12;}.cls-5{fill:#faf0ef;}.cls-6{fill:#fdfdfd;}.cls-7{fill:#fefdfd;}.cls-8{fill:#faf1f0;}.cls-9{fill:#fcf8f8;}.cls-10{fill:#f7e2e1;}</style>
  </defs>
  <title
     id="title6">Mafty</title>
  <g
     id="g4808"
     transform="matrix(12.008343,0,0,12.008343,-77.585154,-98.224493)"
     style="stroke-width:0.08327543;fill:#ebbb01;fill-opacity:1">
    <path
       style="fill:#ebbb01;fill-opacity:1;stroke-width:0.08327543"
       id="path10"
       d="m 48.550781,8.1796875 c -0.15,0.31 -0.07031,0.6294531 -0.07031,0.9394531 v 2.6816404 a 0.72,0.72 0 0 0 -0.240235,0.06055 v -0.230469 l -0.480468,-0.220703 c 0.09,-0.17 0.280468,-0.0907 0.480468,-0.220703 -0.05,-0.31 0.0893,-0.64 -0.220703,-1 -0.31,-0.359999 0.340703,-0.6585936 0.220703,-1.0585936 l 0.02344,-0.00195 c -0.0014,-0.00332 -0.0025,-0.00645 -0.0039,-0.00977 -0.03,-0.23 0.06938,-0.4695312 -0.140625,-0.7695312 l -0.339844,0.4902344 c -0.01,0.399999 0.09,0.8809395 -0.25,1.2109374 0,0.3 0.56,0.52 0,0.75 v 0.234375 c -0.0309,-0.04223 -0.05877,-0.08416 -0.09961,-0.125 v -0.109375 a 2,2 0 0 0 -0.240235,-0.130859 v 1.220703 a 3.26,3.26 0 0 1 -0.228515,1 11.87,11.87 0 0 0 0,1.199219 c -0.03,0.33 0.178593,0.72 -0.191407,1 0.41,0.34 -0.118828,0.739687 -0.04883,0.929687 0.07,0.19 0.240235,0.229531 0.240235,0.519531 A 4.12,4.12 0 0 0 46.5,17.330078 c -0.11,0.44 -0.52,0.899141 0,1.369141 a 11,11 0 0 1 -0.09961,2.810547 2.87,2.87 0 0 0 0.08008,2 8.57,8.57 0 0 0 -0.460938,3.529296 c -0.34,-0.28 -0.05992,-0.718906 -0.419922,-0.878906 0.28,-0.3 0.210938,-0.66 0.210938,-1 l -0.470703,-0.490234 v -0.730469 l 0.449218,-0.169922 c -0.189999,-0.53 -0.659453,-0.319297 -0.939453,-0.529297 0.7,-0.21 0.701172,-0.209531 0.951172,-0.769531 -0.45,0.12 -0.911484,0.39 -1.271484,0 a 17.24,17.24 0 0 0 -2,0.669922 c -0.68,0.33 -1.550078,0.01922 -2.080078,0.699219 l -0.269531,-0.230469 c -0.120002,0.13 -0.210157,0.230469 -0.410157,0.230469 L 39.38086,23.570312 a 19.19,19.19 0 0 0 -2.210937,1 c -0.54,0.340001 -1.170703,0.518829 -1.720703,0.798829 -0.55,0.28 -1.129922,0.561093 -1.669922,0.871093 -0.75,0.43 -1.459922,0.939688 -2.169922,1.429688 a 22.35,22.35 0 0 0 -3.628906,3.380859 c -0.53,0.61 -0.99125,1.35 -1.53125,2 a 10.09,10.09 0 0 0 -1.34961,2.06836 c -0.48,1 -1.319062,1.800781 -1.789062,2.800781 0.29,0.06 0.259219,0.331015 0.199219,0.541016 a 11.61,11.61 0 0 1 -1.660157,4.21875 l 0.310547,0.310546 c 0.64,0.24 1.120469,-0.310703 1.730469,-0.220703 a 13.66,13.66 0 0 0 1.919922,0 h 1.400391 c 0.319999,-0.41 0.328906,-0.820078 0.628906,-1.080078 v -1 a 21.13,21.13 0 0 1 3.580078,-5.759765 L 30.960938,34.759766 A 8.16,8.16 0 0 0 32.759766,33.25 a 2,2 0 0 1 0.730468,-0.539062 3.25,3.25 0 0 0 0.949219,-0.640626 8.3,8.3 0 0 1 2.669922,-1.640624 7.48,7.48 0 0 0 2.191406,-1.089844 0.64,0.64 0 0 1 0.289063,-0.169922 32.52,32.52 0 0 1 4.669922,-1.160156 c 0.3,-0.03 0.400468,-0.449766 0.730468,-0.259766 0.12,0.09 0.08891,0.220469 0.378907,0.230469 0.29,0.01 0.321718,-0.511328 0.761718,-0.361328 l -0.591797,1.160156 c 0.220001,0.52 0.490782,1.049844 0.05078,1.589844 v 0.361328 c 0.13,1.34 -0.279531,2.69 0.230468,4 a 0.35,0.35 0 0 1 -0.08008,0.439453 c -0.3,0.17 -0.0096,0.539375 -0.09961,0.609375 a 18.83,18.83 0 0 0 -2.339844,0.910156 1.92,1.92 0 0 0 -0.919922,1 c -0.86,0.59 -1.87164,0.68 -2.68164,1.25 A 1,1 0 0 1 38.990234,39.25 2.58,2.58 0 0 0 37.400391,39.730469 c -1.17,0.65 -2.450079,1.059062 -3.580079,1.789062 a 3.16,3.16 0 0 1 -1.080078,0.550781 c -0.95,0.08 -1.619919,0.75 -2.669922,1 h -2.210937 a 5,5 0 0 1 -2.189453,-0.210937 c -0.69,-0.31 -1.459453,0.62 -2.189453,0 -0.14,0.1 -0.27086,0.259766 -0.38086,0.259766 -0.91,-0.1 -1.750156,0.4 -2.660156,0.25 h -0.240234 c -0.69,0.55 -1.62836,-0.119063 -2.31836,0.460937 h -2.640625 c -0.24,0 -0.540937,-0.11 -0.710937,0 a 4.24,4.24 0 0 1 -1.619141,0.429688 c -0.57,0.1 -1.259765,-0.130391 -1.759765,0.09961 a 5.16,5.16 0 0 1 -1.7304691,0.160156 11.63,11.63 0 0 1 -1.3203125,0 H 7.7695312 l -0.4394531,0.441407 c -0.27,0.08 -0.5891406,-0.08133 -0.8691406,0.138671 a 3.4,3.4 0 0 0 1.71875,0.59961 h 4.8007815 a 2.47,2.47 0 0 1 0.71875,0 15,15 0 0 0 3,0.451172 2,2 0 0 1 1.351562,0.490234 c 0.7,0.09 1.410078,-0.131484 2.080078,0.228516 a 2.15,2.15 0 0 0 1,0 c 3.41,-0.18 6.798203,0.390468 10.158203,0.230468 0.410001,0.28 0.370235,0.78 0.740235,1 a 2.84,2.84 0 0 0 0.890625,-0.11914 7.24,7.24 0 0 1 3.230469,-0.611328 17.55,17.55 0 0 1 4.410156,0.380859 l 0.378906,0.380859 c 1.3,-0.03 2.59,-0.510156 4,-0.160156 -0.24,1.08 0.201172,2.12875 0.201172,3.21875 v 0.900391 l 0.478516,0.449218 v 1.28125 c -0.49,0.22 -0.66,0.778751 -1,1.21875 l -0.798829,0.05078 -1.53125,1.529297 c 0.01,0.37 -0.129296,0.75 0.220704,1 l -0.289063,0.320312 a 1.2,1.2 0 0 1 0.298828,1 39.22,39.22 0 0 1 2.691407,4 c -0.390001,0.38 0,0.620781 0,1.050781 v 1.320313 a 2,2 0 0 0 0.279296,1.070312 0.77,0.77 0 0 0 -0.279296,0.648438 16,16 0 0 0 0.21875,3.380859 5.74,5.74 0 0 1 0.109374,1.890625 c -0.08,0.7 -0.01812,1.409375 -0.07812,2.109375 a 1.7,1.7 0 0 0 0,0.220703 l 0.388671,0.388672 c 0.25,0.61 -0.279218,1.051328 -0.199218,1.611328 a 4.25,4.25 0 0 1 0,1.548829 c -0.11,0.56 0.57,0.980546 0,1.560546 l 0.490234,0.298828 c 0.08,0.35 -0.09117,0.420547 -0.201172,0.560547 0.66,0.17 -0.07008,0.610157 0.169922,0.910157 0.24,0.3 0.06023,0.940703 0.240234,1.220703 0.18,0.28 0.07031,0.720156 0.07031,1.160156 v 1.320313 1.128906 c -0.19,0.24 -0.420235,0.340625 -0.490234,0.640625 l 0.460937,0.830078 a 1.2,1.2 0 0 0 -0.160156,1.330078 2.66,2.66 0 0 1 0.169922,1.349609 c -0.06,0.4 0.179843,0.810625 0.08984,1.140625 -0.09,0.33 0.169922,0.890079 0.169922,1.330079 0,0.439999 -0.01,0.979453 0,1.439453 0.01,0.46 -0.259765,0.839843 -0.259765,1.339843 0,1.43 -0.04,2.979704 0,4.429687 0.04,1.45 0.01992,2.88961 0.169921,4.34961 0.22,2.1 0.07031,4.22961 0.07031,6.34961 0,0.22 -0.210937,0.29992 -0.210937,0.41992 0.64,1 0.479921,2.17188 0.919921,3.17188 -0.26,0.85 0.66,1.69859 0,2.55859 a 0.26,0.26 0 0 0 0,0.23047 c 0.45,0.52 0.170703,1.14094 0.220703,1.71094 0.04,0.42 -0.04969,0.84992 0.320313,1.16992 a 1,1 0 0 0 -0.330078,0.6582 c -0.07,0.29 0.32039,0.48117 0.150391,0.70117 -0.170001,0.22 -0.200079,0.56891 -0.08008,0.62891 0.28,0.13 0.01945,0.61133 0.189453,0.61133 0.490001,-0.03 0.54875,-0.27111 0.71875,-0.37109 a 5.72,5.72 0 0 1 0,-1.54883 2,2 0 0 0 0,-1.75 c -0.08,-0.08 0,-0.0997 0,-0.17969 a 4.4,4.4 0 0 0 0.101563,-2.33008 4.24,4.24 0 0 1 0.289063,-1.86133 c -0.09,-0.1 -0.240235,-0.17953 -0.240235,-0.26953 a 8.5,8.5 0 0 1 0.349609,-3 2.67,2.67 0 0 0 0,-1.69922 c -0.199998,-0.45 0.0307,-0.97062 -0.279296,-1.39062 0.3,-0.24 0.25039,-0.45086 0.15039,-0.88086 -0.1,-0.43 0.259766,-0.64 0.259766,-1 -0.15,-1.58 0.329765,-3.11922 0.259766,-4.69922 -0.07,-1.920001 -2e-6,-3.839767 0,-5.759767 0,-0.3 -0.290391,-0.500156 0.09961,-0.910156 0.39,-0.41 -0.109375,-0.700547 -0.109375,-1.060547 a 0.69,0.69 0 0 0 0.220703,-0.839843 4.56,4.56 0 0 1 -0.210937,-2.189454 v -6.359375 a 8.49,8.49 0 0 1 -0.128907,-1.060547 c 0.15,-1.03 0.270078,-2.080078 0.330078,-3.080078 a 9.71,9.71 0 0 0 -0.191406,-3.390625 c -0.26,-0.88 0.230469,-1.76039 0.230469,-2.65039 a 12.93,12.93 0 0 1 0.199219,-3.509766 1.3,1.3 0 0 0 -0.179688,-1.240234 c -0.14,-0.16 0,-0.62 0,-1 0.53,0.24 0.441094,0.86 0.871094,1 A 2.09,2.09 0 0 1 51.779297,71 a 3,3 0 0 0 0.621094,0.820312 3.19,3.19 0 0 1 0.919921,1.298829 c 0.08,0.3 0.380235,0.591093 0.490235,0.871093 0.47,1.12 1.55,1.778907 2,2.878907 0.07,0.21 0.270312,0.420937 0.570312,0.210937 a 0.91,0.91 0 0 0 0,-0.791016 6.79,6.79 0 0 1 -0.800781,-2.068359 16.61,16.61 0 0 1 -0.839844,-2.300781 9,9 0 0 0 -1,-2.708984 c -0.22,-0.400003 -0.620703,-0.72 -0.470703,-1.25 -0.48,-0.27 -0.03867,-0.840157 -0.388672,-1.160157 a 5.71,5.71 0 0 1 -1.050781,-1.839843 2.41,2.41 0 0 0 -0.480469,-0.890626 v -1.050781 a 6.16,6.16 0 0 0 -1.458984,-1.839843 c 0.14,-1.11 -0.210703,-2.259454 0.279297,-3.439454 l -0.439453,-0.320312 c -0.19,-0.54 0.25,-0.919141 0,-1.369141 a 11.39,11.39 0 0 0 1.90039,-1.220703 c 0.31,-0.23 0.588212,-0.500703 0.908203,-0.720703 a 11.41,11.41 0 0 0 1.771485,-1.189453 c 0.87,-0.89 1.929141,-1.549375 2.869141,-2.359375 a 1.92,1.92 0 0 1 1.5,-0.53125 c 0.109999,-0.11 0.230468,-0.168516 0.230468,-0.228516 a 4.9,4.9 0 0 1 3.208985,-1.810547 c 0.35,-0.05 0.63039,0.38008 0.90039,0.08008 0.27,-0.3 0.590625,-0.189453 0.890625,-0.189453 h 2.160156 c 0.05,0 0.100157,-0.121093 0.160157,-0.121093 -0.14,-0.28 -0.459844,-0.328837 -0.839844,-0.548828 h 1.298828 c -0.21,0.189999 -0.208984,0.428203 -0.208984,0.658203 A 1.11,1.11 0 0 0 66.689453,48.5 c 0.09,0.22 0,0.590078 0,0.830078 0,0.24 0.02,0.470703 0,0.720703 -0.02,0.25 0.400228,0.319844 0.240235,0.589844 l -0.230469,0.269531 c 0.19,0.14 0.311406,0.28 0.191406,0.5 l -0.429687,0.429688 a 6.13,6.13 0 0 1 -1,3.720703 3.87,3.87 0 0 1 -0.240235,1.888672 14.53,14.53 0 0 0 -0.660156,1.771484 2.59,2.59 0 0 0 -0.310547,1.308594 1.49,1.49 0 0 1 -0.160156,0.650391 c -0.21,0.71 -0.55,1.34 -0.75,2 a 6.26,6.26 0 0 1 -1.910156,3.050781 3.14,3.14 0 0 0 -0.84961,1.330078 c -0.52,0.28 -0.520781,0.279609 -0.800781,0.849609 1.11,-0.66 2.321328,-1 3.111328,-2 a 17.22,17.22 0 0 0 4,-4.099609 17.32,17.32 0 0 1 1.689453,-2 c 0.03,-0.96 -0.01039,-0.980781 0.34961,-1.550781 0.549998,-0.89 0.860859,-1.889063 1.380859,-2.789063 A 2.76,2.76 0 0 0 70.75,54.279297 l 0.460938,-0.458985 c 0.01,-0.759999 0.459997,-1.470468 0.25,-2.230468 l 0.478515,-0.160156 c 0.12,-0.670001 -0.168906,-1.39 0.121094,-2 a 1.39,1.39 0 0 0 -0.130859,-1.34961 c 0.129998,-0.13 0.270468,-0.331015 0.230468,-0.541016 -0.04,-0.209999 -0.380859,0.09016 -0.380859,-0.339843 0.58,0.13 1.120156,-0.199219 1.660156,-0.199219 2.3,0.1 4.571328,-0.419531 6.861328,-0.269531 0.3,0.02 0.648905,0.139062 0.878907,-0.210938 0.509999,0.11 0.949921,-0.50875 1.419921,-0.21875 0.47,0.29 0.770391,0.04 1.150391,0 0.38,-0.04 0.47,-0.42125 1,-0.28125 0.53,0.14 0.919375,-0.24875 1.359375,-0.46875 0.6,0 1.180781,-0.02 1.800781,0 0.62,0.02 1.150703,-0.450234 1.720703,-0.240234 a 0.35,0.35 0 0 0 0.04883,-0.441406 c -0.550001,-0.18 -1.229766,0.190234 -1.759766,-0.259766 -0.58,0.68 -1.040469,-0.27 -1.730469,0 -0.69,0.27 -1.180078,-0.399766 -1.830078,-0.509766 a 3.46,3.46 0 0 1 -1.669922,-0.458984 c -0.16,0.16 -0.249453,0.269531 -0.439453,0.269531 L 81.38086,43.429688 a 4.53,4.53 0 0 1 -2.070312,-0.240235 c -1.46,0.18 -2.960938,-0.32 -4.460938,-0.25 -1.13,0.06 -2.209609,-0.398594 -3.349609,-0.308594 a 5.85,5.85 0 0 0 1.150391,-0.5 c 0.3,-0.83 -0.629688,-1.351093 -0.429688,-2.121093 a 16.4,16.4 0 0 1 -1.330078,-2.810547 0.44,0.44 0 0 0 -0.480469,-0.269531 25.36,25.36 0 0 0 -1.269531,-2.330079 c -0.72,-1.12 -1.309687,-2.329531 -1.929687,-3.519531 a 3.61,3.61 0 0 0 -1.621094,-1.890625 3.71,3.71 0 0 0 -0.660156,-1.109375 7,7 0 0 0 -2.660157,-1.689453 c -0.05,-0.04 -0.218828,-0.07992 -0.04883,-0.169922 0.17,-0.09 0.520156,-0.02117 0.410156,-0.451172 A 13.44,13.44 0 0 1 60.36914,24.679688 11.56,11.56 0 0 0 58.109374,23.449219 4,4 0 0 0 55.779296,23.080078 c -0.13,0.02 -0.208438,0.199219 -0.398438,0.199219 L 54.55078,22.820312 a 2,2 0 0 0 -1.271484,0.21875 c -0.91,-0.469999 -2.070156,-0.329999 -2.910156,-1 -0.27,0.200002 -0.499219,0.351407 -0.449219,0.691407 0.02,0.16 -2.34e-4,0.308595 -0.240234,0.308593 0.349999,0.43 0.220234,0.951407 0.240234,1.441407 0,0.2 0.180234,0.238906 0.240234,0.378906 -0.46,1 -0.139765,2.081172 -0.259765,3.201172 a 2.21,2.21 0 0 1 1.060547,0.289062 l 0.339843,-0.310547 c 0.66,0.44 1.588906,0.32 2.128907,1 0.24,0 0.319687,-0.118984 0.429687,-0.208984 0.19,0.06 0.109688,0.250625 0.179687,0.390625 0.25,0.15 0.531094,7.8e-5 0.871094,0.08008 -0.08,0.72 0.75,0.609844 1,1.089844 l -0.349609,0.349609 a 2,2 0 0 0 -2,0.810547 1.41,1.41 0 0 1 -0.75,0.5 15.87,15.87 0 0 0 -2.800781,1.308594 h -0.220704 c -0.176805,-1.740139 -0.144135,-2.491395 0.101563,-3.072266 -0.0024,-0.06231 -0.0071,-0.123327 -0.0098,-0.185547 -0.05176,-0.04008 -0.104162,-0.0781 -0.111328,-0.121093 -0.119518,-1.450151 -0.05305,-2.906644 -0.05469,-4.359375 -0.0074,0.250807 -0.01906,0.503081 -0.0293,0.757812 -0.01794,-0.565864 -0.03105,-1.132376 -0.0059,-1.699218 a 12.8,12.8 0 0 0 -0.07031,-1.015626 1.7,1.7 0 0 0 -0.160156,-0.34375 c -0.06488,-0.0811 -0.01915,-0.223667 0.121093,-0.265624 0.08949,-0.473742 -0.231398,-0.888007 -0.25,-1.34375 -0.02,-0.49 0.140235,-1.011874 -0.259765,-1.421876 a 1.82,1.82 0 0 0 0.160156,-1.658203 3.43,3.43 0 0 1 -0.169922,-1.53125 8.59,8.59 0 0 0 0,-2.480468 3.36,3.36 0 0 1 0,-1.859375 c 0.06,-0.27 0.31836,-0.678907 -0.18164,-0.878907 a 0.72,0.72 0 0 0 -0.07813,-0.03516 l 0.169922,-0.08594 V 8.1796875 Z m 1.144531,16.3007815 a 8.54,8.54 0 0 1 -0.0059,0.109375 c 0.01843,0.172999 0.01417,0.347323 0.01758,0.521484 -0.0031,-0.200412 -1.12e-4,-0.401366 -0.0078,-0.601562 0.0058,-0.01845 0.01812,-0.01582 0.02539,-0.0293 z m 10.984376,9.138672 a 8.82,8.82 0 0 1 0.75,0.820312 2.77,2.77 0 0 0 0.830078,0.839844 1.44,1.44 0 0 1 0.689453,0.941406 h 0.490234 a 15.31,15.31 0 0 1 2.490235,5.269531 L 66.580078,42 65.859375,42.689453 a 2.38,2.38 0 0 0 -2.070313,-0.05859 1.3,1.3 0 0 1 -0.578124,0.05859 h -1.791016 a 2.31,2.31 0 0 0 -1.359375,0.201172 1,1 0 0 1 -1,-0.08984 c -0.14,-0.12 -0.289688,-0.08086 -0.429688,-0.130859 -0.34,-0.1 -0.61,0.32 -1,0 -0.39,-0.32 -0.769921,0 -1.169921,0 h -2.400391 -1.201172 c -0.2,0 -0.248672,0.170234 -0.388672,0.240234 -0.1,-0.24 -0.399844,-0.179609 -0.589844,-0.349609 0.35,-0.26 0.75961,-6.25e-4 1.09961,-0.140625 0.14,-0.09 0.08914,-0.219922 0.11914,-0.419922 -1,0.08 -2,-0.660078 -3,-0.08008 -0.71,-0.37 -3.9e-4,-1.279922 -0.65039,-1.669922 l 0.53125,-0.570312 c -0.46,-0.52 -0.05977,-1.138907 -0.259766,-1.628907 a 2.32,2.32 0 0 1 1.21875,-0.730469 c 0.9,-0.28 1.67125,-0.790625 2.53125,-1.140624 a 9.26,9.26 0 0 1 1.289063,-0.419922 c 0.67,-0.17 1.31,-0.479219 2,-0.699219 a 39.06,39.06 0 0 0 3.919922,-1.441406 z M 45,39.830078 c 0.14,0 0.190859,0.240547 0.380859,0.310547 v 2.25 l -0.691406,0.580078 a 8.93,8.93 0 0 0 -3.279297,-0.240234 c -0.82,0 -1.640703,1.56e-4 -2.470703,-0.08984 0.33,-0.26 0.720547,-0.101172 1.060547,-0.201172 0.68,-0.21 1.000078,-0.918672 1.830078,-1.138672 0.48,0.17 1.069688,-0.360234 1.929688,-0.240234 z m 4.419922,2.150391 0.740234,0.388672 c -0.2,0.2 -0.420859,0.100312 -0.630859,0.07031 -0.21,-0.03 -0.06938,-0.208984 -0.109375,-0.458984 z m 5.439453,4.830078 h 1.28125 L 56.119141,47 h -1.359375 c 0,-0.09 0.06961,-0.189453 0.09961,-0.189453 z m 9.939453,0.466797 c 0.06625,-0.01 0.135938,0.02203 0.210938,0.08203 -0.08,0.33 -0.250391,0.02984 -0.400391,0.08984 0.06,-0.11 0.123203,-0.161875 0.189453,-0.171875 z m -14.759766,0.453125 h 4.351563 c 0.24,0.42 -0.09125,0.619219 -0.28125,0.699219 a 5.69,5.69 0 0 0 -1.789063,1.330078 v 0.470703 A 15.77,15.77 0 0 1 49.5,51.839844 c -0.13,-1.12 -5.47e-4,-2.208985 -0.06055,-3.208985 l 0.429688,-0.740234 c 0.11,-0.11 0.139921,-0.160156 0.169921,-0.160156 z"
       inkscape:connector-curvature="0" />
    <path
       transform="translate(-233.24,-80.24)"
       id="path12"
       d="m 254.55,129.57 0.53,-0.39 v -1.36 a 8.75,8.75 0 0 1 1.62,-0.06 c 0.52,0 1,0 1.56,0 a 2.26,2.26 0 0 1 1.57,0.32 c 0.19,0.49 0.51,1 0.07,1.56 a 0.66,0.66 0 0 0 0.11,0.77 c 0.24,0.23 0.06,0.53 0.13,0.89 l -0.75,0.63 c 0.1,0.17 0.23,0.15 0.4,0.15 0.17,0.86 0.52,1.67 0.62,2.6 a 8.29,8.29 0 0 0 0.92,3 c 0.52,0.91 0.73,1.93 1.17,2.87 a 25,25 0 0 0 2,3.5 c 0.17,0.2 0.43,0.31 0.46,0.65 0,0.15 0.27,0.28 0.39,0.43 0.53,0.71 1.54,0.77 2,1.39 a 4,4 0 0 0 1.79,1.49 1.76,1.76 0 0 1 0.4,0.27 c -0.41,0.26 -0.65,0 -0.92,0 a 8.08,8.08 0 0 1 -3.22,-1.5 14,14 0 0 1 -3.46,-3.24 4.84,4.84 0 0 0 -1.8,-1.91 c -0.53,-0.25 -0.76,-0.92 -1,-1.46 -0.41,-0.8 -0.84,-1.58 -1.32,-2.34 a 11.77,11.77 0 0 1 -1,-2.57 3.22,3.22 0 0 0 -0.25,-0.62 6.59,6.59 0 0 1 -0.72,-2.33 1.24,1.24 0 0 0 -0.15,-0.42 c -0.41,-0.77 -0.7,-1.47 -1.15,-2.32 z"
       class="cls-3"
       inkscape:connector-curvature="0"
       style="fill:#ebbb01;stroke-width:0.08327543;fill-opacity:1" />
  </g>
</svg>
